<?xml version="1.0" encoding="iso-8859-1"?>
<!-- Generator: Adobe Illustrator 19.0.0, SVG Export Plug-In . SVG Version: 6.00 Build 0)  -->
<svg version="1.1" id="Layer_1" xmlns="http://www.w3.org/2000/svg" xmlns:xlink="http://www.w3.org/1999/xlink" x="0px" y="0px"
	 viewBox="0 0 511.999 511.999" style="enable-background:new 0 0 511.999 511.999;" xml:space="preserve">
<g>
	<g>
		<path d="M438.528,417.026c-8.114-4.295-21.347-12.135-27.656-17.716v-14.937c21.554-12.853,36.354-35.074,41.39-62.142
			c12.968-4.293,23.636-16.359,23.636-27.914c0-11.479-8.265-19.53-21.64-21.766v-10.608c0.115-3.557,0.907-46.49-26.17-74.665
			c-15.089-15.7-35.695-23.661-61.249-23.661c-9.834,0-18.989,1.206-27.386,3.589c0.745-2.727,1.401-5.506,1.94-8.346
			c13.879-4.474,23.666-17.354,23.666-27.847c0-11.479-8.265-19.53-21.641-21.766V98.64c0.115-3.566,0.904-46.491-26.169-74.663
			C302.161,8.278,281.554,0.316,256,0.316c-25.602,0-46.236,7.972-61.329,23.695c-27.035,28.164-26.21,71.038-26.089,74.634v10.605
			c-13.375,2.235-21.64,10.287-21.64,21.766c0,10.49,9.78,23.363,23.649,27.843c0.53,2.799,1.18,5.58,1.939,8.338
			c-8.369-2.378-17.517-3.576-27.369-3.576c-25.602,0-46.237,7.972-61.329,23.695c-27.037,28.166-26.21,71.043-26.089,74.635v10.604
			c-13.375,2.235-21.64,10.287-21.64,21.766c0,11.555,10.669,23.621,23.636,27.914c5.039,27.082,19.849,49.31,41.39,62.143v14.933
			c-6.313,5.584-19.56,13.432-27.672,17.724c-71.906,23.372-73.425,66.7-73.455,68.539L0,511.683h221.678h7.931h282.39v-26.024
			C511.989,483.808,510.927,440.199,438.528,417.026z M446.325,287.79c2.292-0.003,13.711,0.312,13.711,6.529
			c0,1.615-1.217,4.641-4.647,7.86c-3.288,3.085-7.458,5.219-11.156,5.706l-6.012,0.794l-0.81,6.01
			c-3.522,26.124-17.417,47.26-38.158,58.009c-9.653,5.069-20.558,7.641-32.414,7.641s-22.761-2.571-32.446-7.657
			c-9.526-4.95-17.593-12.071-24.012-21.212c-7.301-10.24-12.183-22.972-14.121-36.818l-0.835-5.974l-5.98-0.79
			c-3.698-0.489-7.869-2.621-11.156-5.706c-3.43-3.219-4.649-6.246-4.649-7.86c0-6.216,11.421-6.531,13.71-6.531h7.931V272.43
			c10.936-2.006,31.855-8.509,54.72-29.615c13.195,7.198,48.799,24.574,88.398,26.708l-0.004,18.268H446.325z M395.012,391.719
			v7.787c-4.11,4.093-14.874,13.344-28.172,13.344c-13.349,0-24.072-9.238-28.172-13.336v-7.798
			c8.808,2.979,18.238,4.483,28.172,4.483C376.778,396.199,386.214,394.693,395.012,391.719z M232.578,272.553v-10.618
			c0.012-0.382,0.031-1.319,0.014-2.688c6.519,3.418,14.451,6.055,23.407,6.055c9.012,0,16.975-2.714,23.404-6.093
			c-0.015,1.394,0.005,2.343,0.017,2.727v10.616c-13.375,2.235-21.641,10.287-21.641,21.766c0,11.563,10.685,23.638,23.665,27.923
			c1.771,9.278,4.711,18.086,8.677,26.111h-68.248c3.972-8.033,6.91-16.838,8.681-26.111c12.979-4.285,23.664-16.36,23.664-27.923
			C254.219,282.84,245.953,274.789,232.578,272.553z M230.536,238.76c-0.607-3.515-1.345-6.948-2.216-10.287
			c8.674,2.863,17.926,4.317,27.68,4.317c9.71,0,18.933-1.447,27.594-4.297c-0.852,3.277-1.583,6.708-2.217,10.281
			c-4.783,4.147-14.098,10.669-25.377,10.669C245.062,249.442,235.912,243.371,230.536,238.76z M300.096,364.212
			c6.392,8.195,14.007,14.957,22.711,20.156v14.939c-6.314,5.584-19.561,13.433-27.674,17.726
			c-15.095,4.917-28.163,11.077-38.95,18.345c-10.934-7.325-24.134-13.487-39.333-18.353c-8.115-4.294-21.348-12.135-27.657-17.717
			v-14.94c8.725-5.214,16.34-11.98,22.713-20.156H300.096z M366.84,179.483c21.032-0.001,37.769,6.298,49.746,18.721
			c16.708,17.33,20.656,42.694,21.565,55.406c-44.512-2.795-84.794-27.125-85.215-27.383l-5.323-3.265l-4.423,4.409
			c-19.644,19.581-37.818,26.421-47.832,28.81c0.113-2.517,1.387-13.218,1.387-13.218c1.683-10.101,4.264-18.722,7.932-26.371
			c5.82-12.519,14.182-21.987,24.867-28.151C339.792,182.496,352.34,179.483,366.84,179.483z M206.179,34.928
			c11.981-12.442,28.743-18.75,49.821-18.75c21.034,0,37.771,6.299,49.748,18.722c16.707,17.33,20.656,42.693,21.564,55.405
			c-44.505-2.805-84.782-27.222-85.204-27.481l-5.335-3.284l-4.431,4.431c-19.635,19.635-37.8,26.5-47.814,28.9
			C185.069,81.324,188.285,53.51,206.179,34.928z M162.803,131.015c0-6.06,10.493-6.531,13.709-6.531h7.931v-15.364
			c10.937-2.013,31.859-8.537,54.722-29.706c13.207,7.229,48.805,24.661,88.397,26.801l-0.004,18.269h7.931
			c3.216,0,13.71,0.471,13.71,6.531c0,4.756-7.964,12.425-15.804,13.46l-5.979,0.79l-0.836,5.974
			c-1.253,8.951-3.668,17.271-7.159,24.788c-11.883,7.419-21.31,18.072-28.047,31.652c-10.48,6.136-22.367,9.25-35.373,9.25
			c-13.063,0-24.965-3.125-35.408-9.272c-6.821-13.649-16.273-24.275-28.105-31.638c-0.299-0.619-0.577-1.267-0.842-1.973
			l-0.106-0.266c-3.026-7.264-5.083-14.832-6.11-22.494l-0.807-6.014l-6.015-0.794C170.766,143.44,162.803,135.772,162.803,131.015z
			 M95.274,198.299c11.985-12.486,28.77-18.817,49.886-18.817c14.625,0,27.19,3.039,37.4,9.063
			c10.769,6.247,19.199,15.916,25.061,28.746c3.554,7.753,6.095,16.471,7.589,25.995c0,0,1.101,8.253,1.255,10.324
			c-44.509-2.797-84.787-27.125-85.209-27.383l-5.323-3.265l-4.423,4.409c-19.648,19.584-37.825,26.424-47.838,28.812
			C74.187,244.684,77.343,216.98,95.274,198.299z M74.589,314.688l-0.81-6.01l-6.012-0.794c-3.698-0.489-7.867-2.621-11.155-5.706
			c-3.43-3.219-4.647-6.245-4.647-7.86c0-6.216,11.419-6.531,13.709-6.531h7.931v-15.361c10.936-2.006,31.855-8.509,54.72-29.615
			c13.195,7.198,48.798,24.574,88.397,26.708l-0.004,18.268h7.931c2.289,0,13.709,0.315,13.709,6.531
			c0,1.615-1.217,4.641-4.648,7.86c-3.288,3.085-7.458,5.217-11.155,5.706l-5.981,0.79l-0.835,5.974
			c-1.937,13.846-6.82,26.578-14.154,36.866c-6.386,9.095-14.452,16.216-24.01,21.182c-9.652,5.069-20.558,7.641-32.414,7.641
			c-11.855,0-22.762-2.571-32.453-7.661C92.005,361.948,78.111,340.812,74.589,314.688z M173.331,391.719v7.787
			c-4.109,4.093-14.873,13.344-28.171,13.344c-13.35,0-24.073-9.239-28.172-13.337v-7.797c8.807,2.979,18.238,4.483,28.172,4.483
			C155.098,396.199,164.531,394.695,173.331,391.719z M15.859,485.972v-0.041c0-0.007,0-0.017,0.001-0.026L15.859,485.972z
			 M225.775,469.66c-3.879,8.872-4.084,15.225-4.094,15.921v10.241H15.862v-0.001v-9.962c0.123-2.196,2.969-34.607,63.111-53.939
			l0.648-0.208l0.604-0.315c2.151-1.126,18.034-9.54,28.549-17.839c7.044,6.237,19.984,15.154,36.387,15.154
			s29.343-8.918,36.387-15.154c10.514,8.298,26.398,16.713,28.549,17.839l0.62,0.325l0.667,0.21
			c12.071,3.82,22.678,8.477,31.665,13.892C235.363,453.099,229.471,461.205,225.775,469.66z M237.537,485.97v-0.044
			c0-0.007,0.001-0.017,0.001-0.028L237.537,485.97z M237.54,495.821v-9.963c0.077-1.363,1.462-17.864,23.346-34.364
			c10.363-7.828,23.743-14.414,39.769-19.574l0.646-0.208l0.602-0.315c2.15-1.125,18.034-9.54,28.548-17.838
			c7.044,6.237,19.983,15.154,36.387,15.154c16.403,0,29.342-8.918,36.387-15.154c10.514,8.299,26.398,16.713,28.549,17.839
			l0.62,0.325l0.667,0.211c60.739,19.215,62.997,51.945,63.075,53.872v10.016H237.54z"/>
	</g>
</g>
<g>
</g>
<g>
</g>
<g>
</g>
<g>
</g>
<g>
</g>
<g>
</g>
<g>
</g>
<g>
</g>
<g>
</g>
<g>
</g>
<g>
</g>
<g>
</g>
<g>
</g>
<g>
</g>
<g>
</g>
</svg>
